<mxfile host="app.diagrams.net" modified="2022-02-24T17:15:52.733Z" agent="5.0 (Windows NT 10.0; Win64; x64) AppleWebKit/537.36 (KHTML, like Gecko) Chrome/98.0.4758.102 Safari/537.36" etag="tXDOCwJDyJKot887GSpy" version="16.6.3" type="github">
  <diagram id="yPxyJZ8AM_hMuL3Unpa9" name="gitflow">
    <mxGraphModel dx="1422" dy="754" grid="1" gridSize="10" guides="1" tooltips="1" connect="1" arrows="1" fold="1" page="1" pageScale="1" pageWidth="850" pageHeight="1100" math="0" shadow="0">
      <root>
        <mxCell id="0" />
        <mxCell id="1" parent="0" />
        <mxCell id="WDCZjn-MliC7qW5rFsiM-212" style="edgeStyle=orthogonalEdgeStyle;rounded=1;orthogonalLoop=1;jettySize=auto;html=1;dashed=1;endArrow=none;endFill=0;fontSize=12;fontColor=#FFB570;fillColor=#ffe6cc;strokeColor=#d79b00;exitX=1;exitY=1;exitDx=0;exitDy=0;" edge="1" parent="1" target="WDCZjn-MliC7qW5rFsiM-209">
          <mxGeometry relative="1" as="geometry">
            <mxPoint x="383.0410678118385" y="447.0710678118385" as="sourcePoint" />
            <mxPoint x="507.33" y="590" as="targetPoint" />
            <Array as="points">
              <mxPoint x="383" y="490" />
            </Array>
          </mxGeometry>
        </mxCell>
        <mxCell id="WDCZjn-MliC7qW5rFsiM-206" style="edgeStyle=orthogonalEdgeStyle;rounded=1;orthogonalLoop=1;jettySize=auto;html=1;dashed=1;endArrow=none;endFill=0;fontSize=10;fontColor=#FFB570;fillColor=#ffe6cc;strokeColor=#d79b00;" edge="1" parent="1" target="WDCZjn-MliC7qW5rFsiM-205">
          <mxGeometry relative="1" as="geometry">
            <mxPoint x="385.97" y="440" as="sourcePoint" />
          </mxGeometry>
        </mxCell>
        <mxCell id="WDCZjn-MliC7qW5rFsiM-178" value="" style="endArrow=none;dashed=1;html=1;fillColor=#dae8fc;strokeColor=#6c8ebf;" edge="1" target="WDCZjn-MliC7qW5rFsiM-180" parent="1">
          <mxGeometry width="50" height="50" relative="1" as="geometry">
            <mxPoint x="720" y="440" as="sourcePoint" />
            <mxPoint x="720" y="440" as="targetPoint" />
          </mxGeometry>
        </mxCell>
        <mxCell id="WDCZjn-MliC7qW5rFsiM-179" value="1.0" style="ellipse;whiteSpace=wrap;html=1;aspect=fixed;fillColor=#dae8fc;strokeColor=#6c8ebf;fontStyle=1;labelPosition=center;verticalLabelPosition=top;align=center;verticalAlign=bottom;fontColor=#0066CC;" vertex="1" parent="1">
          <mxGeometry x="30" y="430" width="20" height="20" as="geometry" />
        </mxCell>
        <mxCell id="WDCZjn-MliC7qW5rFsiM-180" value="Dev" style="text;html=1;strokeColor=#6c8ebf;fillColor=#dae8fc;align=center;verticalAlign=middle;whiteSpace=wrap;rounded=0;" vertex="1" parent="1">
          <mxGeometry x="820" y="430" width="90" height="20" as="geometry" />
        </mxCell>
        <mxCell id="WDCZjn-MliC7qW5rFsiM-182" value="" style="endArrow=none;dashed=1;html=1;fillColor=#dae8fc;strokeColor=#6c8ebf;" edge="1" parent="1">
          <mxGeometry width="50" height="50" relative="1" as="geometry">
            <mxPoint x="640" y="440" as="sourcePoint" />
            <mxPoint x="720" y="440" as="targetPoint" />
          </mxGeometry>
        </mxCell>
        <mxCell id="WDCZjn-MliC7qW5rFsiM-184" value="" style="endArrow=none;dashed=1;html=1;fillColor=#dae8fc;strokeColor=#6c8ebf;" edge="1" source="WDCZjn-MliC7qW5rFsiM-179" parent="1">
          <mxGeometry width="391.99" height="450" relative="1" as="geometry">
            <mxPoint x="49.9999999999917" y="440" as="sourcePoint" />
            <mxPoint x="640" y="440" as="targetPoint" />
            <Array as="points" />
          </mxGeometry>
        </mxCell>
        <mxCell id="WDCZjn-MliC7qW5rFsiM-214" value="" style="ellipse;whiteSpace=wrap;html=1;aspect=fixed;fillColor=#dae8fc;strokeColor=#6c8ebf;" vertex="1" parent="WDCZjn-MliC7qW5rFsiM-184">
          <mxGeometry x="371.99" y="430" width="20" height="20" as="geometry" />
        </mxCell>
        <mxCell id="WDCZjn-MliC7qW5rFsiM-186" style="edgeStyle=orthogonalEdgeStyle;rounded=1;orthogonalLoop=1;jettySize=auto;html=1;dashed=1;endArrow=none;endFill=0;fontSize=10;fontColor=#FFB570;fillColor=#e1d5e7;strokeColor=#9673a6;" edge="1" parent="1" source="WDCZjn-MliC7qW5rFsiM-187" target="WDCZjn-MliC7qW5rFsiM-195">
          <mxGeometry relative="1" as="geometry">
            <Array as="points">
              <mxPoint x="81.98" y="450" />
            </Array>
          </mxGeometry>
        </mxCell>
        <mxCell id="WDCZjn-MliC7qW5rFsiM-187" value="" style="ellipse;whiteSpace=wrap;html=1;aspect=fixed;fillColor=#dae8fc;strokeColor=#6c8ebf;" vertex="1" parent="1">
          <mxGeometry x="71.98" y="430" width="20" height="20" as="geometry" />
        </mxCell>
        <mxCell id="WDCZjn-MliC7qW5rFsiM-189" style="edgeStyle=orthogonalEdgeStyle;rounded=1;orthogonalLoop=1;jettySize=auto;html=1;dashed=1;endArrow=none;endFill=0;fillColor=#d5e8d4;strokeColor=#82b366;" edge="1" parent="1" source="WDCZjn-MliC7qW5rFsiM-187">
          <mxGeometry relative="1" as="geometry">
            <mxPoint x="158.95000000000005" y="440" as="targetPoint" />
            <mxPoint x="101.98" y="440" as="sourcePoint" />
          </mxGeometry>
        </mxCell>
        <mxCell id="WDCZjn-MliC7qW5rFsiM-190" value="" style="ellipse;whiteSpace=wrap;html=1;aspect=fixed;fillColor=#f8cecc;strokeColor=#b85450;" vertex="1" parent="1">
          <mxGeometry x="261.95000000000005" y="430" width="20" height="20" as="geometry" />
        </mxCell>
        <mxCell id="WDCZjn-MliC7qW5rFsiM-191" style="edgeStyle=orthogonalEdgeStyle;rounded=1;orthogonalLoop=1;jettySize=auto;html=1;dashed=1;endArrow=none;endFill=0;fillColor=#d5e8d4;strokeColor=#82b366;" edge="1" parent="1" target="WDCZjn-MliC7qW5rFsiM-190">
          <mxGeometry relative="1" as="geometry">
            <mxPoint x="671.98" y="440" as="targetPoint" />
            <mxPoint x="178.95000000000005" y="440" as="sourcePoint" />
          </mxGeometry>
        </mxCell>
        <mxCell id="WDCZjn-MliC7qW5rFsiM-192" style="edgeStyle=orthogonalEdgeStyle;rounded=1;orthogonalLoop=1;jettySize=auto;html=1;dashed=1;endArrow=none;endFill=0;fontSize=10;fontColor=#FFB570;fillColor=#e1d5e7;strokeColor=#9673a6;" edge="1" parent="1" source="WDCZjn-MliC7qW5rFsiM-195" target="WDCZjn-MliC7qW5rFsiM-194">
          <mxGeometry relative="1" as="geometry" />
        </mxCell>
        <mxCell id="WDCZjn-MliC7qW5rFsiM-193" style="edgeStyle=orthogonalEdgeStyle;rounded=1;orthogonalLoop=1;jettySize=auto;html=1;dashed=1;endArrow=none;endFill=0;fontSize=10;fontColor=#FFB570;fillColor=#e1d5e7;strokeColor=#9673a6;entryX=0;entryY=0.5;entryDx=0;entryDy=0;" edge="1" parent="1" source="WDCZjn-MliC7qW5rFsiM-194" target="WDCZjn-MliC7qW5rFsiM-190">
          <mxGeometry relative="1" as="geometry">
            <Array as="points">
              <mxPoint x="241.98" y="470" />
              <mxPoint x="241.98" y="440" />
            </Array>
          </mxGeometry>
        </mxCell>
        <mxCell id="WDCZjn-MliC7qW5rFsiM-194" value="" style="ellipse;whiteSpace=wrap;html=1;aspect=fixed;fontSize=10;fillColor=#e1d5e7;strokeColor=#9673a6;" vertex="1" parent="1">
          <mxGeometry x="201.95" y="460" width="20" height="20" as="geometry" />
        </mxCell>
        <mxCell id="WDCZjn-MliC7qW5rFsiM-195" value="" style="ellipse;whiteSpace=wrap;html=1;aspect=fixed;fontSize=10;fillColor=#e1d5e7;strokeColor=#9673a6;" vertex="1" parent="1">
          <mxGeometry x="111.95" y="460" width="20" height="20" as="geometry" />
        </mxCell>
        <mxCell id="WDCZjn-MliC7qW5rFsiM-196" value="" style="endArrow=none;dashed=1;html=1;fillColor=#d5e8d4;strokeColor=#82b366;" edge="1" parent="1" target="WDCZjn-MliC7qW5rFsiM-198">
          <mxGeometry width="50" height="50" relative="1" as="geometry">
            <mxPoint x="710" y="560" as="sourcePoint" />
            <mxPoint x="720" y="560" as="targetPoint" />
          </mxGeometry>
        </mxCell>
        <mxCell id="WDCZjn-MliC7qW5rFsiM-197" value="1.0" style="ellipse;whiteSpace=wrap;html=1;aspect=fixed;fillColor=#d5e8d4;strokeColor=#82b366;fontStyle=1;labelPosition=center;verticalLabelPosition=top;align=center;verticalAlign=bottom;" vertex="1" parent="1">
          <mxGeometry x="30" y="550" width="20" height="20" as="geometry" />
        </mxCell>
        <mxCell id="WDCZjn-MliC7qW5rFsiM-198" value="Main" style="text;html=1;strokeColor=#82b366;fillColor=#d5e8d4;align=center;verticalAlign=middle;whiteSpace=wrap;rounded=0;" vertex="1" parent="1">
          <mxGeometry x="820" y="550" width="90" height="20" as="geometry" />
        </mxCell>
        <mxCell id="WDCZjn-MliC7qW5rFsiM-200" value="" style="endArrow=none;dashed=1;html=1;fillColor=#d5e8d4;strokeColor=#82b366;" edge="1" parent="1" source="WDCZjn-MliC7qW5rFsiM-201">
          <mxGeometry width="50" height="50" relative="1" as="geometry">
            <mxPoint x="50" y="560" as="sourcePoint" />
            <mxPoint x="720" y="560" as="targetPoint" />
          </mxGeometry>
        </mxCell>
        <mxCell id="WDCZjn-MliC7qW5rFsiM-201" value="2.0" style="ellipse;whiteSpace=wrap;html=1;aspect=fixed;fillColor=#f8cecc;strokeColor=#b85450;fontStyle=1;labelPosition=center;verticalLabelPosition=top;align=center;verticalAlign=bottom;" vertex="1" parent="1">
          <mxGeometry x="640" y="550" width="20" height="20" as="geometry" />
        </mxCell>
        <mxCell id="WDCZjn-MliC7qW5rFsiM-202" value="" style="endArrow=none;dashed=1;html=1;fillColor=#d5e8d4;strokeColor=#82b366;" edge="1" parent="1" source="WDCZjn-MliC7qW5rFsiM-197" target="WDCZjn-MliC7qW5rFsiM-201">
          <mxGeometry width="50" height="50" relative="1" as="geometry">
            <mxPoint x="49.9999999999917" y="560" as="sourcePoint" />
            <mxPoint x="690" y="560" as="targetPoint" />
            <Array as="points" />
          </mxGeometry>
        </mxCell>
        <mxCell id="WDCZjn-MliC7qW5rFsiM-204" value="Feature1" style="text;html=1;strokeColor=#9673a6;fillColor=#e1d5e7;align=center;verticalAlign=middle;whiteSpace=wrap;rounded=0;" vertex="1" parent="1">
          <mxGeometry x="820" y="460" width="90" height="20" as="geometry" />
        </mxCell>
        <mxCell id="WDCZjn-MliC7qW5rFsiM-213" style="edgeStyle=orthogonalEdgeStyle;rounded=0;orthogonalLoop=1;jettySize=auto;html=1;exitX=1;exitY=0.5;exitDx=0;exitDy=0;entryX=0;entryY=0.5;entryDx=0;entryDy=0;curved=1;dashed=1;fillColor=#dae8fc;strokeColor=#6c8ebf;" edge="1" parent="1" source="WDCZjn-MliC7qW5rFsiM-205" target="WDCZjn-MliC7qW5rFsiM-201">
          <mxGeometry relative="1" as="geometry" />
        </mxCell>
        <mxCell id="WDCZjn-MliC7qW5rFsiM-205" value="RC2" style="ellipse;whiteSpace=wrap;html=1;aspect=fixed;fontSize=10;labelPosition=center;verticalLabelPosition=top;align=center;verticalAlign=bottom;fillColor=#f8cecc;strokeColor=#b85450;" vertex="1" parent="1">
          <mxGeometry x="471.31" y="430" width="20" height="20" as="geometry" />
        </mxCell>
        <mxCell id="WDCZjn-MliC7qW5rFsiM-208" style="edgeStyle=orthogonalEdgeStyle;rounded=1;orthogonalLoop=1;jettySize=auto;html=1;dashed=1;endArrow=none;endFill=0;fontSize=12;fontColor=#FFB570;fillColor=#ffe6cc;strokeColor=#d79b00;" edge="1" parent="1" source="WDCZjn-MliC7qW5rFsiM-209" target="WDCZjn-MliC7qW5rFsiM-211">
          <mxGeometry relative="1" as="geometry" />
        </mxCell>
        <mxCell id="WDCZjn-MliC7qW5rFsiM-209" value="" style="ellipse;whiteSpace=wrap;html=1;aspect=fixed;fontSize=10;fillColor=#ffe6cc;strokeColor=#d79b00;" vertex="1" parent="1">
          <mxGeometry x="391.99" y="480" width="20" height="20" as="geometry" />
        </mxCell>
        <mxCell id="WDCZjn-MliC7qW5rFsiM-210" style="edgeStyle=orthogonalEdgeStyle;rounded=1;orthogonalLoop=1;jettySize=auto;html=1;dashed=1;endArrow=none;endFill=0;fontSize=12;fontColor=#FFB570;fillColor=#ffe6cc;strokeColor=#d79b00;entryX=0;entryY=0.5;entryDx=0;entryDy=0;" edge="1" parent="1" source="WDCZjn-MliC7qW5rFsiM-211" target="WDCZjn-MliC7qW5rFsiM-205">
          <mxGeometry relative="1" as="geometry">
            <mxPoint x="441.31" y="410" as="targetPoint" />
            <Array as="points">
              <mxPoint x="461.31" y="460" />
              <mxPoint x="461.31" y="440" />
            </Array>
          </mxGeometry>
        </mxCell>
        <mxCell id="WDCZjn-MliC7qW5rFsiM-211" value="" style="ellipse;whiteSpace=wrap;html=1;aspect=fixed;fontSize=10;fillColor=#ffe6cc;strokeColor=#d79b00;" vertex="1" parent="1">
          <mxGeometry x="447.33" y="480" width="20" height="20" as="geometry" />
        </mxCell>
        <mxCell id="WDCZjn-MliC7qW5rFsiM-215" value="Feature2" style="text;html=1;strokeColor=#d79b00;fillColor=#ffe6cc;align=center;verticalAlign=middle;whiteSpace=wrap;rounded=0;" vertex="1" parent="1">
          <mxGeometry x="820" y="490" width="90" height="20" as="geometry" />
        </mxCell>
      </root>
    </mxGraphModel>
  </diagram>
</mxfile>
